<svg
    width="152"
    height="44"
    viewBox="0 0 152 44"
    fill="none"
    xmlns="http://www.w3.org/2000/svg"
>
    <path
        d="M14.3916 0.75H137.392L150.892 21.75L137.392 42.75H14.3916L0.891602 21.75L14.3916 0.75Z"
        stroke="#2E2E2E"
        stroke-width="1.5"
    />
    <path
        d="M5.60025 14.1579L6.92027 12.1045C9.53848 14.4199 11.3499 17.8526 11.3499 21.2524C11.3499 22.1633 11.2408 23.0818 11.0262 23.9852L8.88062 21.8396C8.89191 21.6439 8.89944 21.4519 8.89944 21.2561C8.89944 20.1758 8.71123 19.1294 8.36492 18.1469L8.35363 18.113C8.29716 17.9624 8.23694 17.8156 8.17671 17.6688C8.16542 17.6425 8.15507 17.6161 8.14471 17.5898C8.13436 17.5634 8.12401 17.5371 8.11271 17.5107C8.06378 17.4016 8.01108 17.2924 7.95838 17.187C7.93587 17.1439 7.91523 17.1007 7.89459 17.0575C7.87384 17.0141 7.85305 16.9707 7.8304 16.9273C7.80706 16.8806 7.78083 16.8354 7.7544 16.7898C7.73821 16.7619 7.7219 16.7338 7.70618 16.7052C7.68812 16.6733 7.67036 16.6415 7.65265 16.6097C7.6076 16.5288 7.56284 16.4485 7.5142 16.3702C7.48409 16.3212 7.45021 16.2685 7.41633 16.2196C7.33352 16.0916 7.25071 15.9674 7.16413 15.8432C7.15089 15.8243 7.13668 15.8063 7.12249 15.7883C7.10845 15.7705 7.09441 15.7527 7.08131 15.734C6.98344 15.6023 6.88557 15.4743 6.78017 15.3463L6.68607 15.2409C6.58067 15.1167 6.47527 14.9962 6.36611 14.8795L6.20582 14.7192C6.11616 14.6296 6.0228 14.5363 5.92946 14.4466C5.82216 14.3468 5.71124 14.2505 5.60025 14.1579Z"
        fill="#2E2E2E"
    />
    <path
        d="M2.28033 19.3222L3.63622 17.213L5.62821 19.2039L3.89666 20.943V20.9393L2.28033 19.3222Z"
        fill="#2E2E2E"
    />
    <path
        d="M3.24674 25.6814L1.8916 23.5734L7.72854 17.7364C7.76118 17.8117 7.79046 17.8904 7.81975 17.969C7.83434 18.0083 7.84905 18.0478 7.86406 18.0865V18.0902C8.16143 18.8619 8.35341 19.6712 8.42493 20.5031L3.24674 25.6814Z"
        fill="#2E2E2E"
    />
    <path
        d="M6.51491 30.7652L5.18025 28.6891C5.28563 28.609 5.38919 28.5285 5.49273 28.4456C5.51782 28.429 5.54085 28.4081 5.56335 28.3877C5.57118 28.3806 5.57907 28.3734 5.58684 28.3666C5.61703 28.3401 5.64743 28.3136 5.6779 28.287C5.77265 28.2043 5.86849 28.1207 5.9595 28.0353C5.97605 28.0188 5.99217 28.0023 6.00814 27.9859C6.0394 27.9538 6.07017 27.9222 6.10254 27.8923C6.20418 27.7982 6.30205 27.7003 6.39615 27.5987C6.49026 27.4971 6.5806 27.3917 6.67094 27.2863C6.69163 27.26 6.71325 27.2356 6.73487 27.2111C6.75652 27.1866 6.77823 27.1621 6.79893 27.1357C7.19794 26.6426 7.55177 26.1043 7.85668 25.5284L9.65456 27.3225C8.82325 28.6972 7.75337 29.8578 6.51491 30.7652Z"
        fill="#2E2E2E"
    />
    <path
        d="M9.65456 27.3225L9.65599 27.3239V27.3201L9.65456 27.3225Z"
        fill="#2E2E2E"
    />
    <path
        d="M10.2055 15.2557C10.5819 15.9145 10.8868 16.6071 11.1353 17.3148C11.1767 17.4315 11.2181 17.5482 11.2557 17.6686L11.395 17.5256L15.1216 21.2484L11.3988 24.975L7.98082 21.5609L6.24927 23.2962L11.395 28.4419L18.5847 21.2447L11.3912 14.0587L10.2017 15.252L10.2055 15.2557Z"
        fill="#2E2E2E"
    />
    <path
        d="M145.876 14.1579L144.556 12.1045C141.938 14.4199 140.127 17.8526 140.127 21.2524C140.127 22.1633 140.236 23.0818 140.45 23.9852L142.596 21.8396C142.585 21.6439 142.577 21.4519 142.577 21.2561C142.577 20.1758 142.765 19.1294 143.112 18.1469L143.123 18.113C143.179 17.9624 143.24 17.8156 143.3 17.6688C143.311 17.6425 143.321 17.6161 143.332 17.5898C143.342 17.5634 143.353 17.5371 143.364 17.5107C143.413 17.4016 143.465 17.2924 143.518 17.187C143.541 17.1439 143.561 17.1007 143.582 17.0575C143.603 17.0141 143.624 16.9707 143.646 16.9273C143.67 16.8806 143.696 16.8354 143.722 16.7898C143.738 16.7619 143.755 16.7338 143.77 16.7052C143.788 16.6733 143.806 16.6415 143.824 16.6097C143.869 16.5288 143.914 16.4485 143.962 16.3702C143.992 16.3212 144.026 16.2685 144.06 16.2196C144.143 16.0916 144.226 15.9674 144.312 15.8432C144.326 15.8243 144.34 15.8063 144.354 15.7883C144.368 15.7705 144.382 15.7527 144.395 15.734C144.493 15.6023 144.591 15.4743 144.696 15.3463L144.79 15.2409C144.896 15.1167 145.001 14.9962 145.11 14.8795L145.271 14.7192C145.36 14.6296 145.454 14.5363 145.547 14.4466C145.654 14.3468 145.765 14.2505 145.876 14.1579Z"
        fill="#2E2E2E"
    />
    <path
        d="M149.196 19.3222L147.84 17.213L145.848 19.2039L147.58 20.943V20.9393L149.196 19.3222Z"
        fill="#2E2E2E"
    />
    <path
        d="M148.23 25.6814L149.585 23.5734L143.748 17.7364C143.715 17.8117 143.686 17.8904 143.657 17.969C143.642 18.0083 143.628 18.0478 143.612 18.0865V18.0902C143.315 18.8619 143.123 19.6712 143.052 20.5031L148.23 25.6814Z"
        fill="#2E2E2E"
    />
    <path
        d="M144.962 30.7652L146.296 28.6891C146.191 28.609 146.087 28.5285 145.984 28.4456C145.959 28.429 145.936 28.4081 145.913 28.3877C145.905 28.3806 145.897 28.3734 145.89 28.3666C145.86 28.3401 145.829 28.3136 145.799 28.287C145.704 28.2043 145.608 28.1207 145.517 28.0353C145.501 28.0188 145.484 28.0023 145.468 27.9859C145.437 27.9538 145.406 27.9222 145.374 27.8923C145.272 27.7982 145.175 27.7003 145.08 27.5987C144.986 27.4971 144.896 27.3917 144.806 27.2863C144.785 27.26 144.763 27.2356 144.742 27.2111C144.72 27.1866 144.698 27.1621 144.678 27.1357C144.279 26.6426 143.925 26.1043 143.62 25.5284L141.822 27.3225C142.653 28.6972 143.723 29.8578 144.962 30.7652Z"
        fill="#2E2E2E"
    />
    <path
        d="M141.822 27.3225L141.821 27.3239V27.3201L141.822 27.3225Z"
        fill="#2E2E2E"
    />
    <path
        d="M141.271 15.2557C140.895 15.9145 140.59 16.6071 140.341 17.3148C140.3 17.4315 140.258 17.5482 140.221 17.6686L140.082 17.5256L136.355 21.2484L140.078 24.975L143.496 21.5609L145.227 23.2962L140.082 28.4419L132.892 21.2447L140.085 14.0587L141.275 15.252L141.271 15.2557Z"
        fill="#2E2E2E"
    />
</svg>
