<svg
    width="629"
    height="18"
    viewBox="0 0 629 18"
    fill="none"
    xmlns="http://www.w3.org/2000/svg"
>
    <path
        fill-rule="evenodd"
        clip-rule="evenodd"
        d="M622.85 2.52637L624.264 3.94058L627.436 7.11217L628.85 8.52639L627.436 9.9406L624.264 13.1122L622.85 14.5264L621.436 13.1122L618.264 9.9406L616.85 8.52639L618.264 7.11217L621.436 3.94058L622.85 2.52637ZM622.85 11.698L626.022 8.52639L622.85 5.3548L619.679 8.52639L622.85 11.698ZM621.136 8.52581L622.85 6.81152L624.564 8.52581L622.85 10.2401L621.136 8.52581Z"
        fill="#F0131D"
    />
    <path
        d="M0.850079 0.52634L5.87059 8.63328M5.87059 8.63328L0.850078 16.5264M5.87059 8.63328L14.9075 8.63328M14.9075 8.63328L11.8952 4.29104M14.9075 8.63328L11.8952 12.7616M14.9075 8.63328L612.85 8.63313"
        stroke="white"
        stroke-opacity="0.1"
        stroke-width="2"
    />
</svg>
