<svg
    width="44"
    height="32"
    viewBox="0 0 44 32"
    fill="none"
    xmlns="http://www.w3.org/2000/svg"
>
    <g clip-path="url(#clip0_105_548)">
        <path
            d="M25.8486 14.5246L27.0087 15.7769L28.9598 17.883L35.3961 24.8276L43.5754 15.9983L35.3961 7.16895L29.1678 13.8921L30.7058 15.5524L35.3961 10.4894L40.5023 15.9983L35.3961 21.5103L30.4978 16.2228L28.5468 14.1167L27.3867 12.8644L25.8486 14.5246Z"
            fill="#F0131D"
        />
        <path
            d="M18.3782 10.3093L17.0072 8.82933L22.1134 3.32049L27.2167 8.82933L25.6435 10.5338L23.6895 12.64L22.5265 13.8923L24.0645 15.5525L25.2275 14.3002L27.1786 12.1941L30.2928 8.82933L22.1134 0L13.9312 8.82933L16.8402 11.9696L18.3782 10.3093Z"
            fill="#F0131D"
        />
        <path
            d="M25.8486 21.6936L27.2167 23.1705L22.1134 28.6793L17.0072 23.1673L18.5862 21.4691L20.5373 19.363L21.6974 18.1075L20.1594 16.4473L18.9993 17.7027L17.0482 19.8089L13.9341 23.1705L22.1134 31.9998L30.2928 23.1705L27.3866 20.0334L25.8486 21.6936Z"
            fill="#F0131D"
        />
        <path
            d="M25.6433 17.7027L23.6893 19.812L22.1102 21.5102L20.7451 20.0334L19.207 21.6936L22.1132 24.8275L25.2273 21.4691L27.1784 19.363L28.3385 18.1075L26.8034 16.4473L25.6433 17.7027Z"
            fill="#F0131D"
        />
        <path
            d="M18.5858 14.3001L20.5369 12.1939L22.1101 10.4894L23.484 11.9694L25.0221 10.3092L22.113 7.16895L18.9989 10.5337L17.0478 12.6398L15.8848 13.8921L17.4228 15.5524L18.5858 14.3001Z"
            fill="#F0131D"
        />
        <path
            d="M20.3671 15.7768L22.3182 17.8829L23.4842 19.1384L25.0222 17.4782L23.8562 16.2227L22.1102 14.3379L20.7451 12.8643L19.207 14.5245L20.3671 15.7768Z"
            fill="#F0131D"
        />
        <path
            d="M15.056 18.1044L13.518 16.4473L8.82778 21.5103L3.92955 16.2228L3.72448 15.9983L8.82778 10.4894L13.726 15.7769L15.6771 17.883L16.8401 19.1385L18.3781 17.4783L17.2151 16.2228L17.0071 15.9983L15.264 14.1167L8.82778 7.16895L0.648438 15.9983L8.82778 24.8276L15.056 18.1044Z"
            fill="#F0131D"
        />
    </g>
    <defs>
        <clipPath id="clip0_105_548">
            <rect width="44" height="32" fill="white" />
        </clipPath>
    </defs>
</svg>
